<svg height="113" viewBox="0 0 391 113" width="391" xmlns="http://www.w3.org/2000/svg"><g fill="none"><rect fill="#15232b" height="113" rx="8.629091" width="113"/><path d="m90.3999996 37.0122695v54.4150028h-54.4021181v-7.470009l46.934191.0003132-.0001548-46.945307zm-14.0827301-13.7274211v54.4150028h-54.4021181v-54.4150028z" fill="#fff" transform="matrix(-1 0 0 1 112.315152 0)"/><path d="m148.475151 48.6584846h-8.526364v-7.190909h8.526364v-6.3690909c0-4.9309337 1.472409-8.81741 4.417273-11.6595454 2.944863-2.8421354 7.019671-4.2631818 12.224545-4.2631818 2.191526 0 4.263172.3424208 6.215 1.0272727s3.544085 1.6436302 4.776818 2.8763636l-3.698182 6.1636364c-1.712129-1.5066742-3.835138-2.26-6.369091-2.26-2.260011 0-4.05772.7704468-5.393181 2.3113636-1.335462 1.5409168-2.003182 3.6468048-2.003182 6.3177273v5.8554545h14.587273v7.190909h-14.587273v44.1727271h-10.17zm50.267878 45.1999999c-7.875796 0-14.073613-2.3798247-18.593636-7.1395455-4.520022-4.7597207-6.78-11.2828373-6.78-19.5695453 0-8.2867081 2.259978-14.8098247 6.78-19.5695454 4.520023-4.7597208 10.71784-7.1395454 18.593636-7.1395454 7.875797 0 14.090735 2.3798246 18.645 7.1395454 4.554266 4.7597207 6.831364 11.2828373 6.831364 19.5695454 0 8.286708-2.277098 14.8098246-6.831364 19.5695453-4.554265 4.7597208-10.769203 7.1395455-18.645 7.1395455zm0-7.7045455c4.725479 0 8.457866-1.694983 11.197273-5.0849999 2.739408-3.390017 4.109091-8.0298191 4.109091-13.9195454 0-5.8897264-1.369683-10.5295285-4.109091-13.9195454-2.739407-3.390017-6.471794-5.085-11.197273-5.085-4.793963 0-8.52635 1.694983-11.197272 5.085-2.670923 3.3900169-4.006364 8.029819-4.006364 13.9195454 0 5.8897263 1.335441 10.5295284 4.006364 13.9195454 2.670922 3.3900169 6.403309 5.0849999 11.197272 5.0849999zm34.756061-32.1536362c0-5.8212412-.102726-9.9987752-.308182-12.5327272h9.553636c.273941 2.7394076.41091 5.7527108.41091 9.0399999v1.0272728h.308181c1.369704-3.4927448 3.544076-6.2149902 6.523182-8.1668182 2.979106-1.9518279 6.488919-2.9277272 10.529546-2.9277272 1.095763 0 2.088783.1027262 2.97909.3081818v8.2181818c-.479396-.1369704-1.5409-.2054546-3.184545-.2054546-3.013348 0-5.804078.8731731-8.372273 2.6195455-2.568194 1.7463723-4.588477 4.109076-6.060909 7.0881817-1.472431 2.9791058-2.208636 6.2492246-2.208636 9.8104546v24.551818h-10.17zm36.296969.6163636c0-5.2048745-.17121-9.5878609-.513636-13.1490908h9.04c.273941 2.533952.410909 5.5472552.410909 9.0399999h.308182c1.301219-3.0818335 3.407107-5.5301424 6.317727-7.3449999 2.910621-1.8148576 6.214982-2.7222727 9.913182-2.7222727 3.629715 0 6.745745.873173 9.348182 2.6195454s4.348783 4.1946812 5.239091 7.345c1.438189-3.0818336 3.612561-5.5130214 6.523181-7.2936364 2.910621-1.7806149 6.18074-2.670909 9.810455-2.670909 5.684271 0 10.11862 1.8319513 13.303182 5.495909 3.184561 3.6639577 4.776818 8.7146648 4.776818 15.1522727v31.7427271h-10.17v-30.8181817c0-4.2460818-.907415-7.5333216-2.722273-9.8618181-1.814857-2.3284965-4.400135-3.4927273-7.755909-3.4927273-3.424259 0-6.214989 1.249836-8.372273 3.7495455-2.157283 2.4997094-3.235909 5.7355862-3.235909 9.7077272v30.7154544h-10.067272v-30.4072726c0-9.1770155-3.355724-13.7654545-10.067273-13.7654545-2.191526 0-4.194688.6163575-6.009545 1.8490909-1.814858 1.2327335-3.270146 2.9105955-4.365909 5.0336364-1.095764 2.1230409-1.643637 4.4172604-1.643637 6.8827272v30.4072726h-10.067273zm100.809697 39.2418181c-4.040626 0-7.670287-.82181-10.889091-2.4654546s-5.478781-3.8351378-6.78-6.5745454l6.471818-4.4172727c1.164249 1.7806149 2.739384 3.1845403 4.725455 4.2118181 1.98607 1.0272779 4.143322 1.5409091 6.471818 1.5409091 2.670922 0 4.879537-.7533258 6.625909-2.26s2.619546-3.4242307 2.619546-5.7527272c0-1.8491002-.684842-3.3728728-2.054546-4.5713636-1.369704-1.1984909-3.903618-2.4825689-7.601818-3.8522727-5.958212-2.2600113-10.152867-4.5713518-12.584091-6.9340909s-3.646818-5.2904371-3.646818-8.7831818c0-4.1091114 1.626499-7.3963513 4.879545-9.8618181 3.253047-2.4654669 7.58467-3.6981818 12.995-3.6981818 3.492745 0 6.677259.7190837 9.553637 2.1572727s5.136355 3.4584718 6.78 6.060909l-6.060909 4.52c-1.164249-1.6436446-2.619537-2.8934805-4.36591-3.7495454-1.746372-.8560649-3.68105-1.2840909-5.80409-1.2840909-2.328497 0-4.228932.5136312-5.701364 1.5409091-1.472432 1.0272778-2.208636 2.362719-2.208636 4.0063636 0 1.7121298.753325 3.1331761 2.26 4.2631818 1.506674 1.1300056 4.451493 2.551052 8.834545 4.2631818 5.478815 2.1230409 9.331049 4.3316552 11.556818 6.625909 2.225769 2.2942539 3.338636 5.256194 3.338636 8.8859091 0 4.8624485-1.780588 8.7660458-5.341818 11.710909s-8.252395 4.4172728-14.073636 4.4172728z" fill="#15232b"/></g></svg>
